<svg width="32" height="32" viewBox="0 0 32 32" fill="none" xmlns="http://www.w3.org/2000/svg">
<path d="M20 4H20.0133" stroke="#504949" stroke-width="2.66667" stroke-linecap="round" stroke-linejoin="round"/>
<path d="M15.3334 9.33333C15.7015 9.33333 16 9.03486 16 8.66667C16 8.29848 15.7015 8 15.3334 8C14.9652 8 14.6667 8.29848 14.6667 8.66667C14.6667 9.03486 14.9652 9.33333 15.3334 9.33333Z" stroke="#504949" stroke-width="2.66667" stroke-linecap="round" stroke-linejoin="round"/>
<path d="M22 10.6667C22.3682 10.6667 22.6667 10.3682 22.6667 10C22.6667 9.63185 22.3682 9.33337 22 9.33337C21.6319 9.33337 21.3334 9.63185 21.3334 10C21.3334 10.3682 21.6319 10.6667 22 10.6667Z" stroke="#504949" stroke-width="2.66667" stroke-linecap="round" stroke-linejoin="round"/>
<path d="M2.66669 16H10.6667M10.6667 16V20H17.3334V16M10.6667 16C10.6667 15.2 11.2 14.6666 12 14.6666H16C16.8 14.6666 17.3334 15.2 17.3334 16M17.3334 16H29.3334" stroke="#504949" stroke-width="2.66667" stroke-linecap="round" stroke-linejoin="round"/>
<path d="M5.33337 16V22.6667C5.33337 23.3739 5.61433 24.0522 6.11442 24.5523C6.61452 25.0524 7.2928 25.3333 8.00004 25.3333H24C24.7073 25.3333 25.3856 25.0524 25.8857 24.5523C26.3858 24.0522 26.6667 23.3739 26.6667 22.6667V16M9.33337 25.3333V28M22.6667 25.3333V28" stroke="#504949" stroke-width="2.66667" stroke-linecap="round" stroke-linejoin="round"/>
</svg>
