<svg width="32" height="32" viewBox="0 0 32 32" fill="none" xmlns="http://www.w3.org/2000/svg">
<path d="M9.00002 5.33337H23C23.9337 5.33333 24.8323 5.6895 25.5124 6.32923C26.1925 6.96897 26.603 7.84407 26.66 8.77604L26.6667 9.00004V13.472C27.3937 13.678 28.0392 14.1035 28.5151 14.6904C28.991 15.2773 29.274 15.9969 29.3254 16.7507L29.3334 17V27C29.3333 27.2534 29.237 27.4973 29.0641 27.6824C28.8911 27.8676 28.6543 27.9801 28.4015 27.9974C28.1487 28.0147 27.8988 27.9354 27.7023 27.7755C27.5057 27.6156 27.3772 27.387 27.3427 27.136L27.3334 27V24H4.66669V27C4.66668 27.2417 4.57916 27.4752 4.42033 27.6573C4.2615 27.8394 4.04209 27.9578 3.80269 27.9907L3.66669 28C3.42504 28 3.19156 27.9125 3.00945 27.7537C2.82733 27.5949 2.70888 27.3754 2.67602 27.136L2.66669 27V17C2.66669 15.3214 3.79469 13.9067 5.33335 13.4707V9.00004C5.33331 8.06633 5.68948 7.16776 6.32921 6.48764C6.96895 5.80752 7.84405 5.39708 8.77602 5.34004L9.00002 5.33337ZM25.6667 15.3334H6.33335C5.92074 15.3332 5.52273 15.4861 5.21633 15.7624C4.90994 16.0388 4.71694 16.4189 4.67469 16.8294L4.66669 17V22H27.3334V17C27.3332 16.5877 27.1802 16.19 26.9039 15.8839C26.6276 15.5777 26.2476 15.3849 25.8374 15.3427L25.6667 15.3334ZM23 7.33337H9.00002C8.58741 7.33319 8.1894 7.48606 7.883 7.7624C7.5766 8.03875 7.38361 8.41893 7.34135 8.82937L7.33335 9.00004V13.3334H9.33335C9.33335 12.9798 9.47383 12.6406 9.72388 12.3906C9.97393 12.1405 10.3131 12 10.6667 12H13.3334C13.6599 12.0001 13.9751 12.12 14.2192 12.337C14.4632 12.554 14.6191 12.853 14.6574 13.1774L14.6667 13.3334H17.3334C17.3334 12.9798 17.4738 12.6406 17.7239 12.3906C17.9739 12.1405 18.3131 12 18.6667 12H21.3334C21.6599 12.0001 21.9751 12.12 22.2192 12.337C22.4632 12.554 22.6191 12.853 22.6574 13.1774L22.6667 13.3334H24.6667V9.00004C24.6669 8.58743 24.514 8.18942 24.2377 7.88302C23.9613 7.57662 23.5811 7.38363 23.1707 7.34137L23 7.33337Z" fill="#504949"/>
</svg>
