<svg width="20" height="20" viewBox="0 0 20 20" fill="none" xmlns="http://www.w3.org/2000/svg">
<g clip-path="url(#clip0_1_15)">
<path d="M17.7778 3.33333H2.22223C1.92754 3.33333 1.64493 3.4504 1.43655 3.65877C1.22818 3.86714 1.11111 4.14976 1.11111 4.44444V15.5556C1.11111 15.8502 1.22818 16.1329 1.43655 16.3412C1.64493 16.5496 1.92754 16.6667 2.22223 16.6667H17.7778C18.0725 16.6667 18.3551 16.5496 18.5635 16.3412C18.7718 16.1329 18.8889 15.8502 18.8889 15.5556V4.44444C18.8889 4.14976 18.7718 3.86714 18.5635 3.65877C18.3551 3.4504 18.0725 3.33333 17.7778 3.33333ZM16.9222 15.5556H3.14445L7.03334 11.5333L6.23334 10.7611L2.22223 14.9111V5.28889L9.12778 12.1611C9.33596 12.3681 9.61758 12.4842 9.91111 12.4842C10.2047 12.4842 10.4863 12.3681 10.6944 12.1611L17.7778 5.11667V14.8389L13.6889 10.75L12.9056 11.5333L16.9222 15.5556ZM2.95 4.44444H16.8778L9.91111 11.3722L2.95 4.44444Z" fill="white"/>
</g>
<defs>
<clipPath id="clip0_1_15">
<rect width="20" height="20" fill="white"/>
</clipPath>
</defs>
</svg>
