<svg width="20" height="20" viewBox="0 0 20 20" fill="none" xmlns="http://www.w3.org/2000/svg">
<path d="M5.48225 1.40868C6.63891 2.20996 7.51442 3.33576 8.25988 4.3702L8.84416 5.18628C9.02561 5.4382 9.10863 5.74246 9.07886 6.0464C9.04909 6.35033 8.9084 6.63482 8.68115 6.85061L7.43932 8.03035L7.57028 8.29484C7.89081 8.91168 8.44396 9.79996 9.27642 10.5917C9.85217 11.1285 10.5001 11.5907 11.2033 11.9663L11.5394 12.1377L11.8388 12.2786L11.9726 12.3369L13.2135 11.1572C13.4413 10.9405 13.7422 10.8069 14.0633 10.7797C14.3844 10.7525 14.7054 10.8335 14.97 11.0084L15.8986 11.62C16.9536 12.3247 18.0553 13.1278 18.9116 14.17C19.0596 14.3509 19.1538 14.5662 19.1842 14.7935C19.2147 15.0208 19.1803 15.2517 19.0847 15.462C18.3182 17.1611 16.3785 18.608 14.361 18.5366L14.0862 18.5227L13.8728 18.5053L13.6366 18.4792L13.3792 18.4462L13.0999 18.4018L12.8014 18.3461L12.4845 18.2791L12.1493 18.1973L11.7967 18.1016L11.4286 17.9885C9.73799 17.4439 7.59226 16.3738 5.39067 14.2823C3.18908 12.1908 2.06355 10.1532 1.49026 8.54714L1.3712 8.19739L1.27047 7.86244L1.18438 7.54401L1.11295 7.24299C1.09234 7.14871 1.07311 7.05415 1.05525 6.95936L1.00946 6.69401L0.97283 6.44954L0.946272 6.22507L0.927956 6.02236L0.913303 5.76136C0.839123 3.85081 2.37859 1.99507 4.15891 1.27035C4.37319 1.18245 4.60784 1.14898 4.83984 1.17323C5.07184 1.19748 5.29322 1.27862 5.48225 1.40868ZM4.6333 2.98166C3.65156 3.46887 2.70095 4.58249 2.74399 5.69698L2.76231 5.98234L2.78246 6.16069L2.80902 6.3608L2.84565 6.58091L2.89235 6.8219L2.95188 7.08117L3.02515 7.35957L3.11306 7.65451L3.21747 7.96597C3.25593 8.07211 3.29684 8.18086 3.34018 8.29223L3.48122 8.63327L3.6424 8.98737C4.21752 10.1897 5.15531 11.5974 6.68745 13.0521C8.21867 14.5067 9.70044 15.3985 10.9661 15.9449L11.3388 16.098L11.6978 16.232C11.815 16.2737 11.9295 16.3126 12.0412 16.3486L12.3691 16.4477L12.6805 16.5313L12.9726 16.6009L13.2455 16.6574L13.4992 16.7018L13.7318 16.7366L13.9424 16.7627L14.1293 16.7801L14.4297 16.7975C15.5872 16.8384 16.7686 15.9405 17.2796 15.02C16.6276 14.2936 15.818 13.6976 14.9251 13.0973L14.2401 12.644L14.0661 12.8172L13.6943 13.2026L13.4974 13.3992C12.9607 13.9186 12.3343 14.3597 11.5833 14.0717L11.3764 13.9891L11.1236 13.8812L10.9826 13.8177L10.673 13.6707L10.3333 13.4966C9.47426 13.0409 8.68357 12.4776 7.98239 11.8219C7.29217 11.1558 6.69923 10.4046 6.21947 9.58855L6.03631 9.26664L5.88062 8.97171L5.70113 8.5976L5.61321 8.39924C5.32839 7.7302 5.72036 7.16556 6.2213 6.67661L6.42644 6.48521L6.93654 6.03889L7.11971 5.87359L6.68653 5.27067C6.04272 4.38325 5.41356 3.58284 4.63238 2.98079L4.6333 2.98166ZM12.9332 4.53638L13.0395 4.54769C13.7061 4.65939 14.3184 4.96872 14.7885 5.43134C15.2587 5.89396 15.5627 6.48611 15.6568 7.12293C15.6904 7.3432 15.6338 7.56731 15.4988 7.74917C15.3637 7.93102 15.1604 8.05678 14.9307 8.10058C14.701 8.14438 14.4624 8.10288 14.2639 7.98463C14.0654 7.86638 13.9222 7.68036 13.8637 7.46484L13.8426 7.36479C13.8058 7.11519 13.6936 6.88106 13.5197 6.69069C13.3458 6.50033 13.1176 6.36188 12.8627 6.29206L12.7208 6.26161C12.4908 6.22289 12.2851 6.10217 12.1457 5.92414C12.0064 5.74611 11.9439 5.52422 11.971 5.30386C11.9981 5.08349 12.1129 4.8813 12.2917 4.73864C12.4706 4.59598 12.7001 4.52362 12.9332 4.53638ZM12.9396 1.89154C14.397 1.89154 15.7946 2.44151 16.8251 3.42046C17.8555 4.39942 18.4345 5.72717 18.4345 7.11162C18.4342 7.33337 18.3448 7.54665 18.1846 7.7079C18.0243 7.86914 17.8053 7.96618 17.5723 7.97917C17.3393 7.99217 17.1099 7.92014 16.9309 7.77782C16.7519 7.63549 16.6368 7.43361 16.6093 7.21341L16.6029 7.11162C16.6028 6.22817 16.249 5.37782 15.6133 4.73303C14.9776 4.08823 14.1075 3.69726 13.1796 3.63939L12.9396 3.63156C12.6968 3.63156 12.4638 3.5399 12.2921 3.37674C12.1203 3.21358 12.0238 2.99229 12.0238 2.76155C12.0238 2.53081 12.1203 2.30952 12.2921 2.14636C12.4638 1.9832 12.6968 1.89154 12.9396 1.89154Z" fill="white"/>
</svg>
